<svg width="91" height="65" viewBox="0 0 91 65" fill="none" xmlns="http://www.w3.org/2000/svg">
<path d="M50.4868 42.8022L60.3552 47.4641L63.4599 53.584L52.884 54.2796L50.4868 42.8022Z" fill="white"/>
<path d="M53.3069 54.6267L84.6115 52.366L85.3166 62.6261L56.1271 62.6261L54.294 58.8003L53.3069 54.6267Z" fill="#D5D5D5"/>
<path d="M47.8037 22.6789L51.5461 19.989L57.3259 17.0227L67.6206 12.3228L77.637 8.33189L82.7154 6.24818L87.8545 4.54452L86.1544 9.93892L85.4555 14.2836L47.7978 31.0287L47.8007 26.8538L47.8037 22.6789Z" fill="#D4D4D4"/>
<path d="M47.8075 31.8462L62.1967 25.7597L84.4706 51.4968L76.8559 52.1924L62.1967 42.9757L47.8075 31.8462Z" fill="#E9E9E9"/>
<path d="M75.8688 18.9782L85.4576 14.9785L85.1756 26.4559L76.1508 25.0647L75.8688 18.9782Z" fill="white"/>
<path d="M21.943 40.8901L34.07 42.803L47.1841 45.9332L51.8375 61.7793L34.7751 61.7793L21.943 40.8901Z" fill="white"/>
<path d="M28.8923 15.2223L33.1777 17.097L37.3132 19.8473L41.4018 28.8905L44.6304 37.9435L38.5639 44.304L34.6656 28.9661L28.8923 15.2223Z" fill="white"/>
<path d="M0.791138 5.5874L22.0839 11.5L33.0828 25.238L2.3836 17.149L0.791138 5.5874Z" fill="white"/>
<path d="M4.04236 26.0268L17.1496 19.818L21.2389 37.034L25.1873 61.4088L6.0805 61.4088L5.09128 44.236L4.04236 26.0268Z" fill="white"/>
</svg>
